<svg xmlns="http://www.w3.org/2000/svg" viewBox="0 0 16 16" width="16" height="16">
  <path d="M1.667 5.667h2.666A.333.333 0 0 1 4.667 6v8.667a.333.333 0 0 1-.334.333H1.667a.333.333 0 0 1-.334-.333V6a.333.333 0 0 1 .334-.333zM2.987 1C3.9 1 4.64 1.746 4.64 2.667S3.9 4.333 2.987 4.333s-1.654-.746-1.654-1.666S2.073 1 2.987 1zm9.346 14h2a.333.333 0 0 0 .334-.333v-5.6c0-2.514-1.42-3.734-3.407-3.734a2.808 2.808 0 0 0-2.113.847.273.273 0 0 1-.48-.18.333.333 0 0 0-.334-.333h-2A.333.333 0 0 0 6 6v8.667a.333.333 0 0 0 .333.333h2a.333.333 0 0 0 .334-.333v-5a1.667 1.667 0 1 1 3.333 0v5a.333.333 0 0 0 .333.333z" fill="#707070"/>
</svg>
