<svg xmlns="http://www.w3.org/2000/svg" width="23.585" height="16.474" viewBox="0 0 23.585 16.474">
  <defs>
    <clipPath id="youtube-a">
      <path data-name="Path 49" d="M0 0h23.585v16.474H0Z" fill="#707070"/>
    </clipPath>
  </defs>
  <g data-name="Mask Group 6" clip-path="url(#youtube-a)">
    <path data-name="Path 32" d="M23.1 2.564A2.955 2.955 0 0 0 21.02.486C19.175 0 11.792 0 11.792 0S4.41 0 2.564.486A2.955 2.955 0 0 0 .486 2.564 31.132 31.132 0 0 0 0 8.237a31.016 31.016 0 0 0 .486 5.673 2.954 2.954 0 0 0 2.079 2.079c1.846.486 9.228.486 9.228.486s7.382 0 9.228-.486A2.955 2.955 0 0 0 23.1 13.91a31.14 31.14 0 0 0 .486-5.673 31.14 31.14 0 0 0-.486-5.673" fill="#707070"/>
    <path data-name="Path 33" d="M15.561 8.257 9.422 4.701v7.091Z" fill="#ededed"/>
  </g>
</svg>
