<svg xmlns="http://www.w3.org/2000/svg" width="30.472" height="32.479" viewBox="0 0 30.472 32.479">
  <g data-name="Group 1612">
    <path data-name="Path 42" d="M18.488 16.241a2.264 2.264 0 0 0-2.234-2.249 2.265 2.265 0 0 0-2.234 2.249 2.253 2.253 0 0 0 2.234 2.234 2.252 2.252 0 0 0 2.234-2.234m3.277 4.394a1.147 1.147 0 0 0-.132-1.794 1.107 1.107 0 0 0-1.5.4 4.776 4.776 0 0 1-3.88 1.911 4.955 4.955 0 0 1-4.909-4.909 4.965 4.965 0 0 1 4.91-4.911 5.062 5.062 0 0 1 3.884 1.91 1.128 1.128 0 0 0 1.5.4 1.147 1.147 0 0 0 .133-1.794 7.121 7.121 0 0 0-5.517-2.676 7.1 7.1 0 0 0-7.069 7.069 7.1 7.1 0 0 0 7.069 7.069 7.121 7.121 0 0 0 5.511-2.675m4.273 1.866a1.153 1.153 0 0 0-.279-1.7 1.1 1.1 0 0 0-1.47.441 9.478 9.478 0 0 1-8.035 4.481 9.531 9.531 0 0 1-9.479-9.479 9.54 9.54 0 0 1 9.479-9.482 9.458 9.458 0 0 1 8.039 4.482 1.091 1.091 0 0 0 1.47.441 1.143 1.143 0 0 0 .275-1.704 11.433 11.433 0 0 0-9.784-5.394A11.709 11.709 0 0 0 4.6 16.241a11.709 11.709 0 0 0 11.654 11.653 11.414 11.414 0 0 0 9.784-5.393m4.2 1.94a1.148 1.148 0 0 0-.323-1.69 1.071 1.071 0 0 0-1.455.456 14.017 14.017 0 0 1-12.206 7.128A14.24 14.24 0 0 1 2.161 16.241 14.24 14.24 0 0 1 16.254 2.147a14.017 14.017 0 0 1 12.214 7.128 1.083 1.083 0 0 0 1.455.456 1.145 1.145 0 0 0 .323-1.69A16.266 16.266 0 0 0 16.255.001 16.324 16.324 0 0 0 0 16.241 16.323 16.323 0 0 0 16.254 32.48a16.13 16.13 0 0 0 13.991-8.039" fill="rgba(0,0,0,0.99)"/>
  </g>
</svg>
