<svg xmlns="http://www.w3.org/2000/svg" width="18" height="18" viewBox="0 0 18 18">
  <defs>
    <clipPath id="instagram-a">
      <rect data-name="Rectangle 1168" width="18" height="18" rx="1" fill="#707070"/>
    </clipPath>
  </defs>
  <g data-name="Group 3682" clip-path="url(#instagram-a)">
    <path data-name="Path 408" d="M5.291.113A4.97 4.97 0 0 0 .074 4.822a4.788 4.788 0 0 0 0 .5c-.041.906-.282 7.753.417 9.551a4.542 4.542 0 0 0 2.623 2.614 6.583 6.583 0 0 0 2.177.416c7.988.361 10.949.165 12.2-3.033a6.531 6.531 0 0 0 .416-2.173c.361-8.008-.059-9.744-1.451-11.135C15.35.456 14.051-.293 5.292.11M12.7 4.227a1.077 1.077 0 1 0 1.081-1.074A1.076 1.076 0 0 0 12.7 4.227M4.385 9.005A4.607 4.607 0 1 0 9 4.407h-.008A4.6 4.6 0 0 0 4.385 9v.009M6 9.005a2.989 2.989 0 1 1 3 2.984h-.009A2.986 2.986 0 0 1 6 9.005" fill="#707070" fill-rule="evenodd"/>
  </g>
</svg>
