<svg xmlns="http://www.w3.org/2000/svg" width="35" height="35" viewBox="0 0 35 35">
  <circle data-name="Ellipse 140" cx="17.5" cy="17.5" r="17.5" fill="#b5b5b5"/>
  <g data-name="whatsapp svg icon" fill="#fff">
    <path data-name="Path 436" d="M27.074 17.371a9.315 9.315 0 0 1-1.093 4.487 9.307 9.307 0 0 1-6.271 4.707 9.43 9.43 0 0 1-4.154-.073 8.574 8.574 0 0 1-2.083-.8.375.375 0 0 0-.326-.027q-2.169.7-4.338 1.385c-.165.054-.326.1-.491.165-.115.042-.123 0-.092-.1.169-.495.334-.989.5-1.488.361-1.078.721-2.155 1.089-3.229a.365.365 0 0 0-.081-.334 8.944 8.944 0 0 1-.974-2.5 9.243 9.243 0 0 1 2.244-8.38 9.253 9.253 0 0 1 3.486-2.359 9.09 9.09 0 0 1 3.885-.594 8.969 8.969 0 0 1 4.955 1.819 9.123 9.123 0 0 1 3.555 5.63 9.7 9.7 0 0 1 .189 1.691ZM17.735 9.78a6.627 6.627 0 0 0-1.193.088 4.217 4.217 0 0 0-.487.1 7.643 7.643 0 0 0-5.339 4.464 7.38 7.38 0 0 0-.545 4.249 7.541 7.541 0 0 0 1.281 3.187.319.319 0 0 1 .042.318c-.284.832-.56 1.668-.84 2.5-.015.046-.061.1-.019.142s.1 0 .142-.019c.84-.268 1.68-.533 2.512-.813a.528.528 0 0 1 .495.065 7.709 7.709 0 0 0 11.111-9.6 7.653 7.653 0 0 0-2.88-3.444 7.431 7.431 0 0 0-4.28-1.237Z"/>
    <path data-name="Path 437" d="M13.155 15.258a2.716 2.716 0 0 1 1.013-2.125.8.8 0 0 1 .663-.18 1.312 1.312 0 0 0 .322.019.459.459 0 0 1 .491.341c.245.644.483 1.292.725 1.937a.412.412 0 0 1-.023.349 3.058 3.058 0 0 1-.625.794c-.207.211-.219.28-.077.537a6.237 6.237 0 0 0 2.945 2.8c.065.027.123.073.184.1a.354.354 0 0 0 .453-.069c.268-.272.518-.564.759-.863.188-.234.276-.268.541-.15.644.3 1.258.648 1.883.986.207.111.23.265.2.545a2.106 2.106 0 0 1-1.99 1.822 2.042 2.042 0 0 1-.963-.077 10.658 10.658 0 0 1-2.639-1.158 8.66 8.66 0 0 1-1.983-1.814 13.183 13.183 0 0 1-1.461-2.2 4.112 4.112 0 0 1-.418-1.594Z"/>
  </g>
</svg>
