<svg xmlns="http://www.w3.org/2000/svg" width="35" height="35" viewBox="0 0 35 35">
  <defs>
    <clipPath id="share-email-a">
      <path data-name="Path 400" d="M0-106.584h19.419v-19.51H0Z" transform="translate(0 126.094)" fill="#fff"/>
    </clipPath>
  </defs>
  <g data-name="Group 3499" transform="translate(-407 -965)">
    <circle data-name="Ellipse 87" cx="17.5" cy="17.5" r="17.5" transform="translate(407 965)" fill="#b5b5b5"/>
    <g data-name="Group 3498">
      <g data-name="Group 3497" transform="translate(415 971)" clip-path="url(#share-email-a)">
        <g data-name="Group 3496">
          <path data-name="Path 399" d="M0 16.654V8.295a4.459 4.459 0 0 1 .091-.966 2.013 2.013 0 0 1 .331-.739 3.562 3.562 0 0 1 .684-.689l6.6-5.032A6.969 6.969 0 0 1 8.721.221a2.2 2.2 0 0 1 1-.222 2.187 2.187 0 0 1 .984.222 6.5 6.5 0 0 1 1.011.648l6.591 5.032a3.744 3.744 0 0 1 .693.693 1.977 1.977 0 0 1 .331.734 4.469 4.469 0 0 1 .091.966v8.359a2.8 2.8 0 0 1-.263 1.405l-5.675-5.6L18 7.996q.263-.254 0-.453l-7.307-5.53a3.993 3.993 0 0 0-.521-.354.938.938 0 0 0-.449-.109.953.953 0 0 0-.462.113 4.713 4.713 0 0 0-.526.349L1.428 7.551q-.263.19-.009.444l4.551 4.46-5.707 5.622A2.88 2.88 0 0 1 0 16.654m1.115 2.448 7.515-7.47a1.593 1.593 0 0 1 1.088-.562 1.6 1.6 0 0 1 1.1.562l7.482 7.442a2.75 2.75 0 0 1-1.768.435H2.7a2.4 2.4 0 0 1-1.587-.408" fill="#fff"/>
        </g>
      </g>
    </g>
  </g>
</svg>
