<svg xmlns="http://www.w3.org/2000/svg" width="35" height="35" viewBox="0 0 35 35">
  <g data-name="Group 3494" transform="translate(-366 -965)">
    <circle data-name="Ellipse 87" cx="17.5" cy="17.5" r="17.5" transform="translate(366 965)" fill="#b5b5b5"/>
    <path data-name="twitter-[#154]" d="M380.72 989.55a10.459 10.459 0 0 0 10.616-10.449c0-.159 0-.317-.011-.475a7.525 7.525 0 0 0 1.861-1.9 7.534 7.534 0 0 1-2.142.578 3.7 3.7 0 0 0 1.64-2.033 7.535 7.535 0 0 1-2.37.893 3.776 3.776 0 0 0-5.28-.159 3.641 3.641 0 0 0-1.079 3.51 10.656 10.656 0 0 1-7.69-3.838 3.642 3.642 0 0 0 1.156 4.9 3.749 3.749 0 0 1-1.694-.459v.047a3.691 3.691 0 0 0 2.994 3.6 3.774 3.774 0 0 1-1.684.062 3.726 3.726 0 0 0 3.485 2.552 7.554 7.554 0 0 1-4.634 1.576 7.732 7.732 0 0 1-.888-.054 10.684 10.684 0 0 0 5.72 1.647" fill="#fff" fill-rule="evenodd"/>
  </g>
</svg>
