<svg xmlns="http://www.w3.org/2000/svg" width="35" height="35" viewBox="0 0 35 35">
  <circle data-name="Ellipse 139" cx="17.5" cy="17.5" r="17.5" fill="#b5b5b5"/>
  <path d="M11.347 13.85h2.771a.346.346 0 0 1 .349.35v9a.346.346 0 0 1-.347.346h-2.773A.346.346 0 0 1 11 23.2v-9a.346.346 0 0 1 .347-.35ZM12.719 9A1.732 1.732 0 1 1 11 10.732 1.725 1.725 0 0 1 12.719 9Zm9.713 14.55h2.079a.346.346 0 0 0 .347-.346v-5.82c0-2.613-1.476-3.881-3.541-3.881a2.918 2.918 0 0 0-2.2.88.284.284 0 0 1-.5-.187.346.346 0 0 0-.347-.346h-2.074a.346.346 0 0 0-.346.346V23.2a.346.346 0 0 0 .346.346h2.079a.346.346 0 0 0 .347-.346V18a1.732 1.732 0 1 1 3.464 0v5.2a.346.346 0 0 0 .346.346Z" fill="#fff"/>
</svg>
