<svg xmlns="http://www.w3.org/2000/svg" width="16.164" height="16.164" viewBox="0 0 16.164 16.164">
  <g data-name="Group 3161" opacity=".9">
    <g data-name="Group 3160">
      <path data-name="Path 379" d="M8.082 0a8.082 8.082 0 1 0 8.082 8.082A8.106 8.106 0 0 0 8.082 0M11.8 11.679a.48.48 0 0 1-.687.162A9.254 9.254 0 0 0 4 11.072a.5.5 0 0 1-.242-.97 10.338 10.338 0 0 1 7.841.889.485.485 0 0 1 .2.687m.97-2.223a.61.61 0 0 1-.85.2 10.472 10.472 0 0 0-8.04-.929.614.614 0 1 1-.364-1.172 11.827 11.827 0 0 1 9.092 1.091.571.571 0 0 1 .162.808m.081-2.263a13.386 13.386 0 0 0-9.375-.928.742.742 0 0 1-.445-1.416C5.9 4 10.628 4.161 13.618 5.94a.781.781 0 0 1 .282 1.051.845.845 0 0 1-1.051.2" fill="#555454"/>
    </g>
  </g>
</svg>
