<svg xmlns="http://www.w3.org/2000/svg" width="111.526" height="62.56" viewBox="0 0 111.526 62.56">
  <path d="M92.953.003h-.192a.11.11 0 0 0-.048 0H67.732v50.038h18.957V37.148h6.264a18.573 18.573 0 0 0 0-37.145Zm-3.123 24.94h-3.1V12.514h3.1a6.214 6.214 0 1 1 0 12.427Zm-56.811-5.916v12.007H19.007v19.008H0V3.199a3.2 3.2 0 0 1 3.2-3.2h33.967v12.513h-18.16v6.511Zm9.927 5.998h19.007v25.02H42.946zM61.953 0v.007l-19.007 19.2v-16a3.2 3.2 0 0 1 3.2-3.2Z" fill="#fff"/>
  <path d="M61.953.003v12.511H49.568Z" fill="#fff" opacity=".7"/>
  <path fill="#005490" d="M111.526 62.56h-.016"/>
</svg>
