<svg xmlns="http://www.w3.org/2000/svg" viewBox="0 0 120.742 45.782">
  <defs>
    <clipPath id="logo-el-radar-a">
      <path fill="none" d="M0 0h40.859v33.286H0z" data-name="Rectangle 575"/>
    </clipPath>
  </defs>
  <g data-name="Group 1573">
    <g data-name="Group 1570">
      <g clip-path="url(#logo-el-radar-a)" data-name="Group 1569" transform="translate(74.28 -.001)">
        <path fill="#a2c037" d="M20.428 21.415a2.107 2.107 0 1 0-2.106-2.109 2.136 2.136 0 0 0 2.107 2.107m-4.146 3.093a1.083 1.083 0 0 0 1.692-.125 1.045 1.045 0 0 0-.374-1.414 4.5 4.5 0 0 1-1.8-3.659 4.63 4.63 0 0 1 9.26 0 4.772 4.772 0 0 1-1.8 3.659 1.064 1.064 0 0 0-.375 1.414 1.082 1.082 0 0 0 1.691.125 6.668 6.668 0 1 0-8.29 0m-1.76 4.034a1.089 1.089 0 0 0 1.608-.264 1.042 1.042 0 0 0-.416-1.387 8.942 8.942 0 1 1 9.427 0 1.029 1.029 0 0 0-.416 1.387 1.079 1.079 0 0 0 1.608.264 10.786 10.786 0 0 0 5.084-9.234 10.993 10.993 0 1 0-21.987 0 10.768 10.768 0 0 0 5.088 9.233m-1.83 3.965a1.082 1.082 0 0 0 1.594-.305 1.01 1.01 0 0 0-.43-1.372 13.221 13.221 0 0 1-6.724-11.52 13.295 13.295 0 1 1 26.589 0 13.221 13.221 0 0 1-6.723 11.52 1.022 1.022 0 0 0-.43 1.372 1.08 1.08 0 0 0 1.595.305 15.319 15.319 0 1 0-15.471 0" data-name="Path 212"/>
      </g>
    </g>
    <path fill="#1a1818" d="M0 27.967v17.815h9.831v-2.528H2.688v-5.953h6.935v-2.527H2.688v-4.281h7.143v-2.526Z" data-name="Path 213"/>
    <path fill="#1a1818" d="M14.306 27.967v17.815h7.927v-2.528h-5.239V27.967Z" data-name="Path 214"/>
    <path fill="#1a1818" d="m38.11 38.189 5.515 7.592h-3.288l-5.088-7.292h-.485v7.292h-2.689V27.966h3.15q3.53 0 5.1 1.327a4.875 4.875 0 0 1 1.731 3.9 5.061 5.061 0 0 1-1.085 3.254 4.832 4.832 0 0 1-2.861 1.742m-3.346-2.042h.854q3.819 0 3.819-2.919 0-2.735-3.715-2.735h-.958Z" data-name="Path 215"/>
    <path fill="#1a1818" d="M59.601 41.455h-7.627l-1.984 4.327h-2.9l8.819-18.934 8.5 18.934h-2.942Zm-1.1-2.527-2.642-6.058-2.769 6.058Z" data-name="Path 216"/>
    <path fill="#1a1818" d="M68.53 45.782V27.967h3.738a13.6 13.6 0 0 1 4.246.531 7.945 7.945 0 0 1 3.035 1.765 8.524 8.524 0 0 1 2.758 6.611 8.668 8.668 0 0 1-5.9 8.411 13.757 13.757 0 0 1-4.189.5Zm2.689-2.527h1.212a10.116 10.116 0 0 0 3.011-.381 6.115 6.115 0 0 0 4.154-6 6.191 6.191 0 0 0-1.961-4.754 7.43 7.43 0 0 0-5.2-1.627h-1.212Z" data-name="Path 217"/>
    <path fill="#1a1818" d="M98.373 41.455h-7.628l-1.984 4.327h-2.9l8.815-18.934 8.5 18.934h-2.931Zm-1.1-2.527-2.642-6.058-2.769 6.058Z" data-name="Path 218"/>
    <path fill="#1a1818" d="m115.227 38.189 5.515 7.592h-3.293l-5.088-7.292h-.485v7.292h-2.689V27.966h3.15q3.53 0 5.1 1.327a4.876 4.876 0 0 1 1.731 3.9 5.061 5.061 0 0 1-1.085 3.254 4.832 4.832 0 0 1-2.861 1.742m-3.346-2.042h.854q3.819 0 3.819-2.919 0-2.735-3.716-2.735h-.957Z" data-name="Path 219"/>
  </g>
</svg>
