<svg xmlns="http://www.w3.org/2000/svg" width="307" height="30.003" viewBox="0 0 307 30.003">
  <g data-name="Group 7">
    <g data-name="Group 2">
      <path data-name="Path 1" d="M29.692.003v.011L0 30.003v-25A4.993 4.993 0 0 1 4.993.011Z" fill="#003475"/>
      <path data-name="Path 2" d="M29.691.003v20H9.9Z" fill="#f99410"/>
    </g>
    <g data-name="Group 3" fill="#003475">
      <path data-name="Path 3" d="M49.691 17.311v-10h6.843v.946h-5.843v3.8h5.629v.944h-5.629v4.316Z"/>
      <path data-name="Path 4" d="M66.831 7.31v6.1a3.7 3.7 0 0 1-3.941 4 3.739 3.739 0 0 1-4-4v-6.1h1v6.1a2.89 2.89 0 0 0 3 3.072 2.844 2.844 0 0 0 2.944-3.072v-6.1Z"/>
      <path data-name="Path 5" d="m76.945 15.424-.056-3.314v-4.8h1v10h-.6l-6.474-8.043.032 2.958v5.085h-1v-10h.63Z"/>
      <path data-name="Path 6" d="M84.542 7.31a4.723 4.723 0 0 1 5.015 4.9 4.783 4.783 0 0 1-5.015 5.1h-3.527v-10Zm-2.528 9.074h2.528a3.889 3.889 0 0 0 4-4.188 3.836 3.836 0 0 0-4-3.94h-2.528Z"/>
      <path data-name="Path 7" d="M98.428 14.997h-5.8L91.6 17.311h-1.058l4.486-10h1l4.489 10h-1.059Zm-5.4-.918h5l-2.5-5.682Z"/>
      <path data-name="Path 8" d="M110.369 15.952a5.061 5.061 0 0 1-3.642 1.513 4.834 4.834 0 0 1-5.2-5.1 4.921 4.921 0 0 1 5.2-5.2 4.6 4.6 0 0 1 3.541 1.5l-.614.62a4.13 4.13 0 0 0-2.927-1.2 4.041 4.041 0 0 0-4.2 4.271 3.911 3.911 0 0 0 4.2 4.186 4.3 4.3 0 0 0 3-1.229Z"/>
      <path data-name="Path 9" d="M112.637 17.311v-10h1v10Z"/>
      <path data-name="Path 10" d="M121.2 7.138a4.884 4.884 0 0 1 5.054 5.2 5.065 5.065 0 1 1-10.127-.014 4.895 4.895 0 0 1 5.073-5.186Zm-4.074 5.2a4.068 4.068 0 1 0 8.13 0 3.938 3.938 0 0 0-4.056-4.257 3.9 3.9 0 0 0-4.078 4.258Zm5.758-7.973h-1.143l-1.067 1.774v.057h.869l1.341-1.8Z"/>
      <path data-name="Path 11" d="m135.835 15.424-.057-3.314v-4.8h1v10h-.6l-6.471-8.043.03 2.958v5.085h-1v-10h.63Z"/>
      <path data-name="Path 12" d="M143.83 17.311v-10h2.214v10Z"/>
      <path data-name="Path 13" d="M152.727 7.31a4.607 4.607 0 0 1 4.971 4.929c0 2.613-1.469 5.072-4.971 5.072h-4.1v-10Zm-1.9 7.945h1.9c2.172 0 2.774-1.6 2.774-3.044a2.6 2.6 0 0 0-2.774-2.89h-1.9Z"/>
      <path data-name="Path 14" d="M167.355 17.311h-7.615v-10h7.413v2.044h-5.226v1.928h4.927v1.958h-4.927v2.015h5.428Z"/>
      <path data-name="Path 15" d="M176.551 15.603h-5.127l-.727 1.712h-2.4l4.488-10h2.427l4.487 10h-2.415ZM174 9.568l-1.731 4.058h3.442Z"/>
      <path data-name="Path 16" d="M186.745 9.727a3.335 3.335 0 0 0-2.317-.846c-.985 0-1.785.415-1.785 1.1 0 .916.871 1.087 2.154 1.2 1.972.17 3.847.928 3.847 3.243 0 2.226-2.058 3.2-4.216 3.215a5.013 5.013 0 0 1-4.372-2.058l1.33-1.385a3.981 3.981 0 0 0 3.058 1.413c1.183 0 2-.47 2-1.185.014-.841-.658-1.229-2.014-1.343-2.112-.2-4-.729-3.972-3.084.015-1.986 1.9-3.045 3.954-3.045a4.411 4.411 0 0 1 3.734 1.541Z"/>
      <path data-name="Path 17" d="M196.837 14.479v2.832h-2.228v-10h4.713a3.488 3.488 0 0 1 3.83 3.588c0 2-1.285 3.557-3.83 3.581Zm0-2.041h2.485a1.459 1.459 0 0 0 1.6-1.5 1.478 1.478 0 0 0-1.6-1.516h-2.485Z"/>
      <path data-name="Path 18" d="M211.28 15.603h-5.131l-.725 1.712h-2.4l4.489-10h2.426l4.488 10h-2.415Zm-2.555-6.031-1.732 4.058h3.445Z"/>
      <path data-name="Path 19" d="M224.706 17.311h-2.47l-2.558-3.288h-1.615v3.288h-2.227v-10h4.742a3.388 3.388 0 0 1 3.7 3.372 3 3 0 0 1-2.316 3.143l2.744 3.316Zm-6.643-8.087v2.913h2.537a1.388 1.388 0 0 0 1.472-1.4 1.471 1.471 0 0 0-1.5-1.516Z"/>
      <path data-name="Path 20" d="M233.631 15.603h-5.124l-.731 1.712h-2.4l4.487-10h2.427l4.485 10h-2.413Zm-2.553-6.031-1.73 4.058h3.442Z"/>
      <path data-name="Path 21" d="M243.91 7.31v7.958h5v2.043h-7.23v-10Z"/>
      <path data-name="Path 22" d="M257.7 15.603h-5.131l-.724 1.712h-2.4l4.484-10h2.428l4.487 10h-2.414Zm-2.555-6.031-1.73 4.058h3.444Z"/>
      <path data-name="Path 23" d="M267.768 14.479v2.832h-2.229v-10h4.711a3.489 3.489 0 0 1 3.832 3.588c0 2-1.287 3.557-3.832 3.581Zm0-2.041h2.482a1.46 1.46 0 0 0 1.6-1.5 1.482 1.482 0 0 0-1.6-1.516h-2.482Z"/>
      <path data-name="Path 24" d="M282.208 15.603h-5.13l-.727 1.712h-2.4l4.486-10h2.429l4.486 10h-2.415Zm-2.558-6.031-1.729 4.058h3.442Z"/>
      <path data-name="Path 25" d="M286.334 7.31h7.642v.97l-4.8 6.947h4.914v2.084h-8v-1.155l4.886-6.932h-4.643Z"/>
    </g>
    <g data-name="Group 6">
      <g data-name="Group 5">
        <g data-name="Group 4">
          <path data-name="Path 26" d="M307 .003v26.68a3.325 3.325 0 0 1-3.32 3.32H47.689l1.011-1.01h254.98a2.32 2.32 0 0 0 2.32-2.31V.003Z" fill="#f99410"/>
        </g>
      </g>
    </g>
  </g>
</svg>
