<svg xmlns="http://www.w3.org/2000/svg" width="293.827" height="172.84" viewBox="0 0 293.827 172.84" xml:space="preserve">
  <path fill="#124E91" d="M240.838 8.689c-.163 0-.325 0-.487.009a.279.279 0 0 0-.122 0h-63.494v127.173h48.182V103.1h15.922c26.067 0 47.205-21.137 47.205-47.204-.001-26.068-21.139-47.207-47.206-47.207zM232.9 72.078v-.008h-7.872V40.493h7.872c8.725 0 15.793 7.076 15.793 15.792 0 8.725-7.068 15.793-15.793 15.793zM88.504 57.042V87.56H52.891v48.312H4.581V16.812a8.122 8.122 0 0 1 8.124-8.123h86.344l.008 31.804H52.891v16.549h35.613zm25.232 15.246h48.31v63.593h-48.31zm48.31-63.606v.017l-48.31 48.789V16.812a8.122 8.122 0 0 1 8.123-8.123l40.187-.007z"/>
  <path fill="#FAA634" d="M162.046 8.689V40.49l-31.478.001v-.008z"/>
  <path d="M5.75 157.549V146.46h7.588v1.045h-6.48v4.213H13.1v1.046H6.858v4.785H5.75zm19.008-11.089v6.764c0 2.994-1.965 4.437-4.373 4.437-2.407 0-4.436-1.442-4.436-4.437v-6.764h1.109v6.764c0 2.106 1.441 3.406 3.326 3.406 1.68 0 3.264-1.093 3.264-3.406v-6.764h1.11zm11.213 8.997-.062-3.676v-5.321h1.108v11.089h-.665l-7.176-8.919.031 3.278v5.641h-1.108V146.46h.697l7.175 8.997zm8.425-8.997c3.754 0 5.56 2.692 5.56 5.433 0 2.805-1.679 5.656-5.56 5.656h-3.913V146.46h3.913zm-2.803 10.059h2.804c3.088 0 4.481-2.408 4.436-4.643-.048-2.154-1.442-4.371-4.436-4.371h-2.804v9.014zm18.198-1.538h-6.432l-1.141 2.567h-1.172l4.975-11.089h1.108l4.975 11.089h-1.173l-1.14-2.567zm-5.987-1.013h5.544l-2.772-6.306-2.772 6.306zm19.228 2.075a5.633 5.633 0 0 1-4.039 1.681c-3.834 0-5.751-2.567-5.767-5.657-.017-3.025 1.917-5.766 5.767-5.766 1.473 0 2.962.522 3.929 1.663l-.681.683a4.59 4.59 0 0 0-3.248-1.332c-3.09 0-4.658 2.282-4.658 4.736 0 2.599 1.568 4.643 4.658 4.643 1.188 0 2.439-.476 3.326-1.363l.713.712zm2.517 1.506V146.46h1.109v11.089h-1.109zm9.488-11.279c3.755.016 5.624 2.804 5.607 5.766-.016 2.898-1.853 5.72-5.607 5.72-3.77 0-5.624-2.821-5.624-5.735 0-3.123 2.027-5.751 5.624-5.751zm-4.515 5.765c.031 2.424 1.489 4.674 4.515 4.674s4.482-2.297 4.499-4.674c0-2.486-1.474-4.704-4.499-4.721-2.978 0-4.547 2.108-4.515 4.721zm6.385-8.839h-1.269l-1.188 1.964v.063h.968l1.489-1.996v-.031zm14.364 12.261-.062-3.676v-5.321h1.108v11.089h-.665l-7.177-8.919.032 3.278v5.641h-1.109V146.46h.697l7.176 8.997zm8.865 2.092V146.46h2.455v11.089h-2.455zm9.868-11.089c3.817 0 5.513 2.565 5.513 5.464 0 2.899-1.632 5.625-5.513 5.625h-4.547V146.46h4.547zm-2.108 8.807h2.107c2.408 0 3.073-1.773 3.073-3.374 0-1.6-.761-3.2-3.073-3.2h-2.107v6.574zm18.327 2.282h-8.443V146.46H136v2.264h-5.797v2.139h5.465v2.171h-5.465v2.233h6.02v2.282zm10.199-1.902h-5.687l-.808 1.901h-2.662l4.975-11.089h2.692l4.975 11.089h-2.678l-.807-1.901zm-2.835-6.685-1.918 4.5h3.818l-1.9-4.5zm14.135.175c-.618-.649-1.695-.935-2.566-.935-1.094 0-1.98.46-1.98 1.22 0 1.014.967 1.204 2.392 1.33 2.187.19 4.261 1.029 4.261 3.597 0 2.47-2.28 3.548-4.672 3.563-1.918.016-3.914-.729-4.849-2.28l1.474-1.537c.855 1.093 2.266 1.569 3.391 1.569 1.314 0 2.217-.524 2.217-1.315.017-.935-.728-1.363-2.232-1.49-2.346-.221-4.437-.808-4.404-3.421.016-2.202 2.106-3.374 4.388-3.374 1.711 0 2.994.38 4.135 1.71l-1.555 1.363zm11.194 5.275v3.137h-2.472V146.46h5.228c2.836 0 4.246 1.837 4.246 3.976 0 2.219-1.426 3.944-4.246 3.977h-2.756zm0-2.266h2.756c1.188 0 1.774-.776 1.774-1.663s-.602-1.681-1.774-1.681h-2.756v3.344zm16.014 3.501h-5.688l-.808 1.901h-2.661l4.974-11.089h2.693l4.975 11.089h-2.678l-.807-1.901zm-2.835-6.685-1.918 4.5h3.818l-1.9-4.5zm17.722 8.587h-2.739l-2.837-3.645h-1.789v3.645h-2.472V146.46h5.259c2.678 0 4.104 1.789 4.104 3.738-.016 1.441-.443 2.724-2.566 3.485l3.041 3.675v.191zm-7.365-8.966v3.229h2.819c1.141 0 1.632-.854 1.632-1.552-.016-.76-.507-1.678-1.664-1.678h-2.787zm17.265 7.064h-5.688l-.808 1.901h-2.661l4.974-11.089h2.693l4.975 11.089h-2.678l-.807-1.901zm-2.835-6.685-1.918 4.5h3.818l-1.9-4.5zm14.233-2.502v8.823h5.545v2.266h-8.016V146.46h2.471zm15.285 9.187h-5.688l-.808 1.901h-2.662l4.975-11.089h2.693l4.974 11.089h-2.677l-.807-1.901zm-2.836-6.685-1.917 4.5h3.818l-1.901-4.5zm14.001 5.45v3.137h-2.472V146.46h5.228c2.836 0 4.245 1.837 4.245 3.976 0 2.219-1.425 3.944-4.245 3.977h-2.756zm0-2.266h2.756c1.188 0 1.774-.776 1.774-1.663s-.603-1.681-1.774-1.681h-2.756v3.344zm16.013 3.501h-5.688l-.807 1.901h-2.662l4.974-11.089h2.693l4.975 11.089h-2.678l-.807-1.901zm-2.835-6.685-1.918 4.5h3.818l-1.9-4.5zm7.41-2.502h8.476v1.077l-5.323 7.698h5.45v2.313h-8.871v-1.284l5.417-7.682h-5.148v-2.122z" fill="#124E91"/>
  <path fill="#FAA634" d="M278.729 167.691H4.583v-2.303h274.146c3.845 0 6.973-3.128 6.973-6.972V106.44l2.303-2.341v54.316c0 5.116-4.16 9.276-9.276 9.276z"/>
  <path fill="#005490" d="M288.046 167.691h-.041"/>
</svg>
