<?xml version="1.0" encoding="utf-8"?>
<!-- Generator: Adobe Illustrator 25.2.1, SVG Export Plug-In . SVG Version: 6.00 Build 0)  -->
<svg version="1.1" id="Layer_1" xmlns="http://www.w3.org/2000/svg" xmlns:xlink="http://www.w3.org/1999/xlink" x="0px" y="0px"
	 viewBox="0 0 152.4 152.4" style="enable-background:new 0 0 152.4 152.4;" xml:space="preserve">
<style type="text/css">
	.st0{fill:#FFFFFF;}
	.st1{fill:none;stroke:#BBD151;stroke-width:0.6;stroke-miterlimit:10;}
	.st2{enable-background:new    ;}
	.st3{fill:#BBD151;}
	.st4{clip-path:url(#SVGID_2_);}
	.st5{fill:#5F4F93;}
	.st6{fill:none;stroke:#5F4F93;stroke-width:0.6;stroke-miterlimit:10;}
	.st7{clip-path:url(#SVGID_4_);}
</style>
<g>
	<g id="Layer_2_1_">
		<g id="Layer_1-2">
			
				<image style="overflow:visible;opacity:0.5;enable-background:new    ;" width="635" height="635" xlink:href="9E42E775AC4CBFA9.png"  transform="matrix(0.24 0 0 0.24 0 0)">
			</image>
			<circle class="st0" cx="75.3" cy="75" r="70"/>
			<path class="st1" d="M32.5,117.4c-8.2-8.3-13.8-18.7-16.2-30.2"/>
			<path class="st1" d="M133.6,90.4c-3.3,12.3-10.4,23.3-20.2,31.3"/>
			<path class="st1" d="M114.6,29.3c12.2,10.5,19.7,25.5,20.8,41.5"/>
			<path class="st1" d="M15,75c0-18,8.1-35.1,22-46.5"/>
			<g class="st2">
				<path class="st3" d="M32.6,123l5.3-6.5l4.7,3.9l-1.1,1.3l-3.3-2.7l-1.3,1.5l3.1,2.5l-1.1,1.3l-3.1-2.5l-1.9,2.3L32.6,123z"/>
			</g>
			<g class="st2">
				<path class="st3" d="M43,130.7c-2.3-1.4-3.1-3.7-1.7-6.1c1.4-2.4,3.8-2.9,6.1-1.5c2.3,1.4,3.1,3.7,1.7,6.1
					C47.7,131.6,45.3,132.1,43,130.7z M46.6,124.6c-1.4-0.8-2.9-0.3-3.7,1c-0.8,1.4-0.4,2.9,1,3.7c1.4,0.8,2.9,0.4,3.7-1
					C48.3,126.9,48,125.4,46.6,124.6z"/>
			</g>
			<g class="st2">
				<path class="st3" d="M56.6,136.6l-1.9-0.7l-1-3.3l-1.3-0.5l-1,2.6l-1.8-0.7l3-7.9c1.3,0.5,2.5,0.9,3.7,1.4
					c1.9,0.7,2.4,2.4,1.9,3.7c-0.4,1-1,1.8-2.7,1.8l1.2,3.4L56.6,136.6z M53.8,128.3l-0.9,2.3l2,0.8c0.8,0.3,1.4-0.2,1.6-0.7
					c0.2-0.5,0.1-1.3-0.7-1.6L53.8,128.3z"/>
			</g>
			<g class="st2">
				<path class="st3" d="M67.5,133l-3.1,2.7l-0.3-0.1l-1.9-3.7l-1.1,5.8l-1.8-0.3l1.5-8.2c0.7,0.1,1.4,0.3,2.1,0.4l1.8,3.6l3-2.7
					l2.1,0.4l-1.5,8.2l-1.8-0.3L67.5,133z"/>
			</g>
			<g class="st2">
				<path class="st3" d="M77.6,137.8l-4.3,0l-0.6,1.4l-2,0l3.7-8.4l2,0l3.8,8.4l-2,0L77.6,137.8z M75.5,132.8l-1.4,3.4l2.9,0
					L75.5,132.8z"/>
			</g>
			<g class="st2">
				<path class="st3" d="M89.3,136.8c-0.7,1-1.8,1.5-3,1.7c-3.2,0.5-4.7-1.3-5.1-3.6c-0.4-2.1,0.7-4.6,3.7-5.1
					c1.1-0.2,2.3,0.1,3.2,0.8l-1,1.3c-0.6-0.4-1.3-0.5-2-0.4c-1.9,0.3-2.4,1.9-2.2,3.1s1.1,2.5,3,2.2c0.7-0.1,1.5-0.5,1.9-1.1
					L89.3,136.8z"/>
			</g>
			<g class="st2">
				<path class="st3" d="M91.6,137.2l-2.2-8.1l1.8-0.5l2.2,8.1L91.6,137.2z"/>
			</g>
			<g class="st2">
				<path class="st3" d="M102.7,128.6c1.1,2.5,0,4.8-2.5,5.8c-2.5,1-4.8,0.2-5.9-2.3c-1.1-2.5,0-4.8,2.5-5.8
					C99.3,125.3,101.7,126.1,102.7,128.6z M97.7,123.3l-1.9,0.8l-0.2,1.9l0,0.1l1.4-0.6L97.7,123.3L97.7,123.3z M101,129.4
					c-0.6-1.4-2-2.1-3.5-1.5c-1.5,0.6-2,2.1-1.4,3.6c0.6,1.4,2.1,2.1,3.5,1.5C101.1,132.3,101.6,130.8,101,129.4z"/>
			</g>
			<g class="st2">
				<path class="st3" d="M110.2,125.5l-1.5-2.2l-1.5-2.4l1.6-1l4.5,7.1l-1.3,0.9l-6.4-2.3l1.5,2.3l1.4,2.2l-1.6,1l-4.5-7.1l1.3-0.9
					L110.2,125.5z"/>
			</g>
			<g class="st2">
				<path class="st3" d="M47.2,24.8c-0.3,1.2-1,2.1-2,2.8c-2.7,1.8-4.9,0.7-6.1-1.2c-1.2-1.8-1.3-4.5,1.3-6.2c1-0.6,2.1-0.8,3.3-0.6
					l-0.3,1.6c-0.7-0.1-1.4,0.1-2,0.5c-1.6,1-1.4,2.7-0.7,3.7s2,1.8,3.6,0.7c0.6-0.4,1.1-1.1,1.3-1.8L47.2,24.8z"/>
			</g>
			<g class="st2">
				<path class="st3" d="M54.9,22.4L49.1,25c-1.2-2.5-2.4-5.1-3.5-7.6l5.7-2.6l0.7,1.6l-4,1.8l0.7,1.5l3.8-1.7l0.7,1.5l-3.8,1.7
					l0.7,1.5l4.1-1.9L54.9,22.4z"/>
			</g>
			<g class="st2">
				<path class="st3" d="M61.3,17.3l-0.8-2.5l-0.8-2.7l1.8-0.5l2.3,8.1l-1.5,0.4l-5.5-4.1l0.8,2.6l0.7,2.5l-1.8,0.5l-2.3-8.1
					l1.5-0.4L61.3,17.3z"/>
			</g>
			<g class="st2">
				<path class="st3" d="M67,12.5l-2.5,0.3l-0.2-1.7c2.4-0.3,4.5-0.5,6.9-0.8l0.2,1.7l-2.5,0.3l0.8,6.7l-1.8,0.2L67,12.5z"/>
			</g>
			<g class="st2">
				<path class="st3" d="M81.1,18.8L79,18.7l-2.1-2.8l-1.4,0l-0.1,2.8l-1.9-0.1l0.3-8.4c1.4,0,2.6,0.1,4,0.1c2,0.1,3.1,1.4,3,2.9
					c0,1.1-0.4,2.1-2,2.6l2.2,2.9L81.1,18.8z M75.7,11.8l-0.1,2.4l2.1,0.1c0.9,0,1.3-0.6,1.3-1.1c0-0.6-0.3-1.3-1.2-1.3L75.7,11.8z"
					/>
			</g>
			<g class="st2">
				<path class="st3" d="M86.5,20c-2.6-0.5-4.1-2.5-3.6-5.2c0.5-2.7,2.7-3.9,5.3-3.4c2.6,0.5,4.1,2.5,3.6,5.2
					C91.3,19.3,89.1,20.5,86.5,20z M87.9,13c-1.6-0.3-2.9,0.6-3.2,2.1c-0.3,1.5,0.5,2.9,2.1,3.2c1.6,0.3,2.9-0.6,3.2-2.1
					C90.3,14.7,89.5,13.3,87.9,13z"/>
			</g>
			<g class="st2">
				<path class="st3" d="M102.3,16.1c2.6,1.2,3,3.5,2.1,5.5s-2.9,3.4-5.6,2.1c-1-0.4-2.2-1-3.1-1.4l3.5-7.6L102.3,16.1z M98.1,21.5
					l1.5,0.7c1.7,0.8,2.7-0.2,3.2-1.3c0.5-1.1,0.5-2.4-1.1-3.2l-1.5-0.7L98.1,21.5z"/>
			</g>
			<g class="st2">
				<path class="st3" d="M109.4,30l-5.3-3.6c1.6-2.3,3.1-4.7,4.7-7l5.2,3.5l-1,1.4l-3.7-2.4l-0.9,1.3l3.4,2.3l-0.9,1.4l-3.4-2.3
					l-0.9,1.4l3.8,2.5L109.4,30z"/>
			</g>
			<g>
				<defs>
					<path id="SVGID_1_" d="M109.4,25L50.3,84.1H15.5c-0.4-3-8.6-6-8.6-9.2c0-33.4,35-60.5,68.4-60.5C87.5,14.5,99.4,18.1,109.4,25z
						"/>
				</defs>
				<clipPath id="SVGID_2_">
					<use xlink:href="#SVGID_1_"  style="overflow:visible;"/>
				</clipPath>
				<g class="st4">
					<path class="st5" d="M13.7,70.5h-2.8v-2.2h8.4v2.2h-2.8v7.4h-2.7V70.5z"/>
					<path class="st5" d="M29.8,77.9h-3l-2.2-3.1h-1v3.1h-2.7v-9.7h4.7c2.5,0,3.8,1.6,3.8,3.3c0.1,1.3-0.8,2.5-2,2.9l2.5,3.2
						L29.8,77.9z M23.5,70.4v2.3h2c0.6,0,1-0.4,1-1c0,0,0-0.1,0-0.1c0.1-0.6-0.4-1.1-1-1.2c0,0-0.1,0-0.1,0H23.5z"/>
					<path class="st5" d="M38,76.3h-4.3L33,77.9h-2.9l4.3-9.7h2.8l4.3,9.7h-2.9L38,76.3z M35.8,70.9L34.6,74h2.5L35.8,70.9z"/>
					<path class="st5" d="M49.1,73.5c-0.1-1.2-0.1-1.6-0.1-2v-3.3h2.8v9.7h-2.3l-4-5.2l0,2.1v3.1h-2.8v-9.7H45L49.1,73.5z"/>
					<path class="st5" d="M60,70.9c-0.7-0.5-1.5-0.7-2.3-0.7c-0.7,0-1.3,0.2-1.3,0.7c0,0.7,0.7,0.8,1.6,0.9c1.9,0.2,3.9,1,3.9,3.2
						s-2.1,3.1-4.2,3.1c-1.6,0.2-3.2-0.5-4.3-1.7l1.5-1.7c0.8,0.7,1.8,1.1,2.8,1.1c0.9,0,1.5-0.3,1.5-0.8s-0.5-0.8-1.6-0.9
						c-2.1-0.2-3.9-0.7-3.9-3.1c0-2,2-2.9,4-2.9c1.3-0.1,2.6,0.3,3.6,1.1L60,70.9z"/>
				</g>
			</g>
			<line class="st6" x1="97.5" y1="36.9" x2="56.6" y2="77.9"/>
			<polyline class="st6" points="34.6,102.5 48.1,89 61.3,75.8 80.9,56.2 			"/>
			<circle class="st3" cx="135.6" cy="71.3" r="2"/>
			<circle class="st5" cx="97.5" cy="36.9" r="2"/>
			<circle class="st5" cx="34.6" cy="102.3" r="2"/>
			<circle class="st3" cx="15.9" cy="86.6" r="2"/>
			<g>
				<defs>
					<polygon id="SVGID_3_" points="145.3,76.2 139.8,100.6 36.5,100.6 61,76.2 					"/>
				</defs>
				<clipPath id="SVGID_4_">
					<use xlink:href="#SVGID_3_"  style="overflow:visible;"/>
				</clipPath>
				<g class="st7">
					<path class="st5" d="M54.4,93.5V78.4H66V82h-7.3v2.8h6.9v3.5h-6.9v5.2L54.4,93.5z"/>
					<path class="st5" d="M76.4,93.9C71.4,93.9,68,91,68,86s3.4-8,8.4-8s8.4,2.9,8.4,7.9S81.3,93.9,76.4,93.9z M76.4,81.7
						c-2.4-0.1-4.3,1.8-4.4,4.1s1.8,4.3,4.1,4.4c2.4,0.1,4.3-1.8,4.4-4.1c0,0,0-0.1,0-0.1c0.2-2.2-1.4-4.1-3.5-4.3
						C76.8,81.7,76.6,81.7,76.4,81.7z"/>
					<path class="st5" d="M101.5,93.5h-4.7l-3.5-4.9h-1.5v4.9h-4.3V78.4h7.4c3.9,0,5.9,2.5,5.9,5.2c0,1.9-0.7,3.4-3.2,4.6l3.9,5.1
						V93.5z M91.8,81.8v3.6H95c0.9,0,1.6-0.7,1.6-1.5c0-0.1,0-0.1,0-0.2c0.1-0.9-0.6-1.8-1.5-1.9c-0.1,0-0.1,0-0.2,0H91.8z"/>
					<path class="st5" d="M116.6,84.5l-3.9,4.6H112l-3.8-4.6v9H104V78.4h4.5l4,5.1l4-5.1h4.4v15.1h-4.2L116.6,84.5z"/>
					<path class="st5" d="M134.9,91h-6.8l-1,2.5h-4.5l6.8-15.1h4.3l6.8,15.1h-4.6L134.9,91z M131.5,82.6l-1.9,4.8h3.9L131.5,82.6z"
						/>
				</g>
			</g>
		</g>
	</g>
</g>
</svg>
